<?xml version="1.0" encoding="UTF-8" standalone="no"?>
<!-- Created with Inkscape (http://www.inkscape.org/) -->

<svg
   version="1.1"
   id="svg2921"
   width="741.33331"
   height="708"
   viewBox="0 0 741.33331 708"
   sodipodi:docname="instalLasagnaLogo.svg"
   inkscape:version="1.2.2 (732a01da63, 2022-12-09)"
   xmlns:inkscape="http://www.inkscape.org/namespaces/inkscape"
   xmlns:sodipodi="http://sodipodi.sourceforge.net/DTD/sodipodi-0.dtd"
   xmlns="http://www.w3.org/2000/svg"
   xmlns:svg="http://www.w3.org/2000/svg">
  <defs
     id="defs2925" />
  <sodipodi:namedview
     id="namedview2923"
     pagecolor="#ffffff"
     bordercolor="#000000"
     borderopacity="0.25"
     inkscape:showpageshadow="2"
     inkscape:pageopacity="0.0"
     inkscape:pagecheckerboard="0"
     inkscape:deskcolor="#d1d1d1"
     showgrid="false"
     inkscape:zoom="0.83594403"
     inkscape:cx="277.53054"
     inkscape:cy="412.10893"
     inkscape:window-width="1350"
     inkscape:window-height="1040"
     inkscape:window-x="237"
     inkscape:window-y="1080"
     inkscape:window-maximized="0"
     inkscape:current-layer="g2927" />
  <g
     inkscape:groupmode="layer"
     inkscape:label="Image"
     id="g2927">
    <path
       style="fill:#000000;stroke-width:1.33333"
       d="M 2.0952381,705.90476 C 0.20114189,704.01067 0,670.28283 0,354.57143 0,6.8001608 0.01123021,5.3221031 2.6738086,2.6595247 5.3386724,-0.00533923 6.5717666,-0.01314503 371.27383,0.32619132 669.38757,0.60357067 737.52126,0.98787583 738.93335,2.3999589 c 1.4116,1.411604 1.79655,66.5687011 2.07411,351.0736811 0.23424,240.10188 -0.0931,350.15121 -1.04691,351.93337 C 738.59112,707.9658 733.73043,708 371.38164,708 39.349269,708 3.9898556,707.79937 2.0952381,705.90476 Z M 157.47237,653.15403 c 0.6344,-1.00139 1.16265,-20.8707 1.17388,-44.15403 l 0.0204,-42.33333 H 113.33333 67.999998 v 43.77777 c 0,24.07779 0.45,44.25201 1,44.83161 0.55,0.57962 20.421753,0.74894 44.159452,0.37626 34.46241,-0.54106 43.39188,-1.04448 44.31292,-2.49828 z m -51.6107,-25.72652 c -4.84904,-2.11084 -9.552438,-8.21467 -10.682026,-13.8626 -1.667912,-8.33956 5.176086,-18.93147 13.598546,-21.04538 9.28548,-2.3305 20.8186,5.08836 22.59014,14.53147 1.39269,7.42365 -3.4739,16.51935 -10.56048,19.7376 -6.47336,2.93977 -9.37558,3.06384 -14.94618,0.63891 z m 120.91404,23.23916 c 0.67335,0 2.42428,-1.2 3.89095,-2.66667 5.82197,-5.82197 1.08115,-17.37279 -7.09677,-17.29093 -5.34102,0.0535 -8.51115,2.43496 -10.38086,7.7984 -1.19349,3.42366 -1.0541,4.83321 0.7503,7.58708 2.40557,3.67136 7.00908,6.08413 9.83638,5.15541 0.97664,-0.32081 2.32664,-0.58329 3,-0.58329 z m 300.31193,-0.21779 c 4.18833,-2.23072 6.15476,-5.24521 6.20328,-9.50948 0.0577,-5.07057 -5.3225,-10.27273 -10.62427,-10.27273 -2.59783,0 -5.33096,1.20974 -7.39393,3.27273 -2.06299,2.06297 -3.27274,4.79611 -3.27274,7.39393 0,4.8333 5.11899,10.66667 9.36039,10.66667 1.5482,0 4.12548,-0.698 5.72727,-1.55112 z m 135.58205,-38.53593 c 0.89146,-1.60322 -2.82571,-6.23986 -16.03388,-20 L 629.44141,574 l -18.37508,18.32709 -18.37508,18.3271 17.96881,18.00588 17.96881,18.00586 16.44015,-16.33296 c 9.04208,-8.98313 16.96239,-17.27214 17.60067,-18.42002 z m -297.61235,1.41056 c 0.3238,-2.77087 -4.75819,-8.63174 -29.68664,-34.23654 -23.0752,-23.70126 -31.23668,-31.26337 -35.05735,-32.48277 -15.81781,-5.04837 -47.3411,-23.70432 -60.72958,-35.94064 l -7.19187,-6.57296 -19.58361,19.62137 -19.58362,19.62136 7.91871,7.37448 c 33.31233,31.02292 87.79261,56.63547 134.44918,63.20795 28.06298,3.9532 28.93564,3.93567 29.46478,-0.59225 z m 53.87059,-1.89044 c 45.48839,-10.40098 90.85727,-32.91263 117.64257,-58.37323 l 10.23258,-9.72651 -19.17592,-19.97441 -19.17591,-19.97443 -7.89231,7.03651 c -29.13286,25.97385 -74.07222,45.41727 -113.89229,49.27649 l -10,0.96918 -0.36101,27.87197 -0.361,27.87196 14.361,-0.85833 c 7.89856,-0.47208 20.77859,-2.32572 28.62229,-4.1192 z m 149.98421,-90.7664 C 591.00429,493.24771 610.64903,452.45612 619.31838,416 c 2.79816,-11.76679 4.7586,-14.44613 28.51267,-38.9686 L 664.32879,360 h -90.16441 -90.1644 l 0.028,55.66667 0.028,55.66666 14.30531,-14.68864 c 7.86792,-8.07874 22.83303,-23.52874 33.25581,-34.33333 10.42278,-10.80459 19.57278,-19.64469 20.33334,-19.64469 2.26397,0 1.57269,14.46346 -1.255,26.25794 -5.03651,21.00756 -16.29867,44.45136 -28.62235,59.58152 l -5.72533,7.02915 19.33253,20.28236 c 22.33185,23.42905 18.68961,22.89759 33.2318,4.84903 z M 204.31607,516.3512 c 10.09283,-10.07351 18.35059,-18.75668 18.35059,-19.29593 0,-0.53924 -3.66281,-6.54728 -8.13957,-13.35119 -20.07859,-30.51595 -30.49854,-60.07953 -30.51775,-86.58529 -0.0107,-14.12246 2.79072,-25.81615 7.90356,-32.99648 L 194.84825,360 h -39.46597 c -34.75396,0 -39.56258,0.25175 -40.27511,2.10856 -1.15738,3.01611 1.85288,30.88209 5.02073,46.47677 8.18038,40.27036 30.4366,86.46198 55.87209,115.95959 4.76667,5.52792 8.95891,10.06673 9.31608,10.08625 0.35718,0.0195 8.90718,-8.20646 19,-18.27997 z M 365.33332,490 v -28.66667 h -27.49658 c -25.99458,0 -27.39676,0.12747 -25.66902,2.33334 1.00518,1.28333 10.5916,11.63333 21.30318,23 10.71157,11.36666 21.73244,23.21666 24.49082,26.33333 2.75838,3.11667 5.54542,5.66667 6.19342,5.66667 0.648,0 1.17818,-12.9 1.17818,-28.66667 z m 37.82207,-1.33333 26.38649,-27.33334 h -26.77095 -26.77094 v 27.33334 c 0,15.03333 0.173,27.33333 0.38445,27.33333 0.21144,0 12.25837,-12.3 26.77095,-27.33333 z M 70.925211,509.27992 c 3.392325,-3.39233 3.918593,-4.75145 3.226753,-8.33333 -1.686556,-8.73186 -11.359841,-11.85992 -17.545906,-5.67386 -5.314666,5.31467 -4.079314,12.79804 2.727273,16.52096 4.383878,2.39779 7.316206,1.7619 11.59188,-2.51377 z m 613.408099,-0.0983 c 8.50303,-10.24139 -6.30173,-23.33441 -15.72726,-13.90887 -4.45435,4.45434 -4.18738,9.35108 0.78068,14.31915 3.39233,3.39232 4.75145,3.9186 8.33333,3.22676 2.35396,-0.45467 5.32992,-2.09133 6.61325,-3.63704 z M 365.33332,390.75745 v -19.9092 l -3.92114,-2.7921 c -2.15663,-1.53566 -4.3015,-3.99048 -4.76638,-5.45518 -0.80773,-2.54493 -1.86121,-2.64692 -23.74552,-2.29869 l -22.90029,0.36439 -0.36276,25 -0.36275,25 h 28.02942 28.02942 z M 431.69608,385 l 0.36275,-25 h -22.39918 -22.39917 l -3.47615,3.66667 c -1.91188,2.01666 -4.44549,4.44032 -5.63024,5.3859 -1.81088,1.4453 -2.1541,4.90186 -2.1541,21.69371 v 19.97449 L 403.66665,410.36039 431.33332,410 Z m -178.36275,-9 c 1.96149,-1.96149 2.66666,-4.44444 2.66666,-9.38941 v -6.72276 l -10.33333,0.38942 -10.33333,0.38942 -0.40926,5.65136 c -0.33165,4.57986 0.22566,6.28625 2.9394,9 4.22208,4.22208 11.60431,4.54752 15.46986,0.68197 z m -91.124,-26.66667 h 95.124 v -52 -52 h 53.99999 54 V 146 c 0,-54.633333 -0.24368,-99.333333 -0.5415,-99.333333 -0.81322,0 -15.83876,15.918861 -32.72128,34.666666 -8.25466,9.166667 -16.33872,17.894388 -17.96462,19.394937 -1.62588,1.50055 -11.01485,5.37793 -20.86437,8.6164 -19.30699,6.34804 -42.74028,17.54228 -61.90822,29.57396 -12.37812,7.76972 -38,28.19517 -38,30.29314 0,0.6517 8.29977,9.77404 18.44393,20.27186 l 18.44393,19.08694 7.8894,-6.80864 c 4.33918,-3.74476 11.76475,-9.29402 16.50128,-12.33172 17.30897,-11.10078 52.52917,-26.41446 57.95484,-25.19865 1.29364,0.28988 -1.70324,4.70421 -8.97917,13.22609 -6.00648,7.03504 -16.0927,19.03504 -22.41379,26.66667 -13.61416,16.43672 -30.1528,35.31972 -48.50709,55.38303 -7.33333,8.01614 -21.05259,23.09894 -30.48721,33.51732 -9.43464,10.41837 -17.70875,18.59958 -18.3869,18.18045 -1.63928,-1.01312 -0.14321,-14.69617 2.99088,-27.35489 4.76487,-19.24538 13.44324,-37.26064 27.15714,-56.37496 4.06601,-5.66719 7.3879,-10.71751 7.38197,-11.22295 -0.005,-0.50544 -8.10184,-9.31899 -17.99089,-19.58565 L 185.35154,178 l -6.11269,6.66667 c -3.36198,3.66666 -14.41542,17.16666 -24.56319,30 -18.59921,23.5214 -28.95124,35.22192 -87.342329,98.71972 -17.599999,19.13925 -32.232208,35.45362 -32.516019,36.25418 -0.365634,1.03135 4.261136,1.19868 15.876002,0.57415 9.015612,-0.48476 59.197816,-0.88139 111.516016,-0.88139 z m 195.11927,-3.32452 c 0.97859,-1.82849 3.17998,-4.24232 4.89198,-5.36408 3.0395,-1.99154 3.11274,-2.5251 3.11274,-22.67546 v -20.63594 h -28 -28 v 26 26 h 23.10803 23.10803 z m 74.67139,-22.67548 v -26 h -28 -28 v 20.57588 20.57587 l 3.92114,2.79211 c 2.15663,1.53565 4.29707,3.9765 4.75652,5.42412 0.78962,2.48788 2.10836,2.63202 24.07886,2.63202 h 23.24348 z m 191.99999,13.17112 c 0,-45.51766 -20.62217,-101.16413 -52.03186,-140.40176 -16.01648,-20.00812 -13.4863,-19.44768 -27.64152,-6.12254 -6.64018,6.25078 -15.18164,14.95336 -18.98104,19.33905 l -6.90798,7.97399 8.19063,10.86978 c 15.102,20.04187 27.27745,50.32747 28.86396,71.79712 L 556.23408,310 531.82464,284.66667 C 518.39945,270.73333 502.155,253.93333 495.72585,247.33333 l -11.68936,-12 -0.0183,57 -0.0182,57 h 70 70 z M 422.56927,236.33333 c -24.7956,-26.1923 -45.05763,-47 -45.76744,-47 -0.44102,0 -0.80184,12.6 -0.80184,28 v 28 h 27.54468 27.54466 z m 259.32682,-23.24 c 2.6238,-3.06533 4.77056,-6.24356 4.77056,-7.06273 0,-0.81917 -2.36367,-3.79747 -5.2526,-6.61843 l -5.25259,-5.12902 -6.74741,5.64925 c -3.71107,3.10709 -6.7474,6.02067 -6.7474,6.47463 0,1.54968 11.21728,12.25964 12.84037,12.25964 0.89017,0 3.76525,-2.508 6.38907,-5.57334 z m -610.502743,1.50702 c 2.931303,-3.23906 3.251456,-10.74688 0.59478,-13.94799 -4.359857,-5.25331 -14.372091,-4.82997 -17.349607,0.73356 -2.134316,3.98801 -1.491796,9.91095 1.413418,13.02933 3.634305,3.90098 11.888467,4.00056 15.341409,0.1851 z m 458.606633,-26.40276 18.66667,-19.13575 -6.66667,-5.99572 c -26.43066,-23.77061 -60.42925,-42.64138 -98.55909,-54.70479 l -15.89242,-5.028 L 416.05909,92 C 409.73995,85.766667 398.35595,74.216667 390.76132,66.333333 383.16669,58.45 376.73849,52 376.47644,52 c -0.26205,0 -0.46401,10.65 -0.4488,23.666667 l 0.0276,23.666666 10.30568,11.451537 c 22.09281,24.54922 52.84173,55.8826 54.85545,55.89808 3.46634,0.0267 21.38326,8.30324 33.29515,15.38045 6.1128,3.6318 16.57584,10.96079 23.2512,16.28663 6.67536,5.32585 12.45956,9.52585 12.85378,9.33333 0.39422,-0.19251 9.11676,-8.96111 19.38343,-19.48577 z M 129.99089,144.3352 c 9.2194,-2.90563 20.54323,-13.88027 25.33181,-24.55065 3.3382,-7.43849 3.59428,-9.18027 3.08,-20.948801 -0.43553,-9.966556 -1.235,-14.132057 -3.57653,-18.634966 -4.54505,-8.740415 -12.90439,-17.048472 -21.30416,-21.173492 -6.61725,-3.249642 -9.04558,-3.693838 -20.18868,-3.692959 -10.19759,8.03e-4 -13.892686,0.567201 -18.956304,2.905697 -8.824817,4.075503 -19.016268,14.082743 -23.346782,22.924788 -3.177929,6.488695 -3.675673,9.122496 -3.685523,19.501853 -0.0099,10.46505 0.46746,12.97513 3.732193,19.62344 11.089214,22.58209 33.950546,31.9127 58.913976,24.04509 z M 107.1529,124.07622 c -9.791563,-2.36616 -17.819569,-12.82578 -17.819569,-23.21697 0,-5.417417 3.587405,-13.536999 7.573585,-17.141733 3.600654,-3.256097 11.649174,-6.384184 16.426414,-6.384184 8.46407,0 18.1972,6.046743 22.2378,13.815319 2.57361,4.948128 2.53585,14.154348 -0.0788,19.210538 -5.10791,9.87762 -18.13485,16.183 -28.33943,13.71703 z m 539.14555,13.08882 c 18.94173,-9.04914 27.76204,-31.09716 20.35753,-50.887485 -3.79384,-10.139946 -10.53219,-17.393104 -20.90068,-22.497495 -7.37076,-3.628613 -10.24992,-4.318655 -17.73349,-4.250129 -15.31103,0.140198 -28.20472,7.673698 -35.41656,20.69311 -3.62599,6.545934 -3.9386,8.168587 -3.9386,20.443629 0,15.40733 1.88365,20.60579 10.63893,29.36107 12.86232,12.86233 29.66675,15.41459 46.99287,7.1373 z M 230.06059,78.060607 c 4.04858,-4.048571 4.24966,-9.792358 0.5093,-14.547462 -6.81334,-8.661752 -21.11612,0.282827 -17.14674,10.723107 2.87472,7.561099 11.02683,9.434976 16.63744,3.824355 z m 299.99999,0 c 3.74414,-3.744127 4.11006,-7.240494 1.32206,-12.631912 -5.19496,-10.045944 -19.38266,-5.663092 -19.38266,5.987677 0,8.851213 11.58988,13.114961 18.0606,6.644235 z"
       id="path2931"
       inkscape:export-filename="instalLasagna.svg"
       inkscape:export-xdpi="96"
       inkscape:export-ydpi="96" />
  </g>
</svg>
